<svg width="120" height="120" viewBox="0 0 120 120" fill="none" xmlns="http://www.w3.org/2000/svg">
    <path d="M120 60C120 93.1371 93.1371 120 60 120C26.8629 120 0 93.1371 0 60C0 26.8629 26.8629 0 60 0C93.1371 0 120 26.8629 120 60ZM5.7 60C5.7 89.9891 30.0109 114.3 60 114.3C89.9891 114.3 114.3 89.9891 114.3 60C114.3 30.0109 89.9891 5.7 60 5.7C30.0109 5.7 5.7 30.0109 5.7 60Z" fill="#EAEFFB"/>
    <path d="M117.15 60C118.724 60 120.007 58.7232 119.932 57.151C119.578 49.7016 117.838 42.3747 114.792 35.549C111.358 27.8547 106.343 20.9699 100.072 15.3428C93.8005 9.71566 86.4146 5.4724 78.3947 2.88928C70.3748 0.306169 61.9008 -0.558878 53.5244 0.350464C45.148 1.25981 37.0571 3.92315 29.7783 8.16708C22.4996 12.411 16.1963 18.1404 11.2789 24.9821C6.36142 31.8239 2.94007 39.6246 1.2376 47.8764C-0.272686 55.1968 -0.40023 62.7264 0.852489 70.0783C1.11688 71.63 2.64402 72.6017 4.18137 72.2639V72.2639C5.71871 71.9261 6.68335 70.4068 6.4267 68.8539C5.3411 62.2852 5.4715 55.5645 6.82003 49.0282C8.36077 41.5603 11.4571 34.5006 15.9074 28.3088C20.3577 22.117 26.0621 16.932 32.6494 13.0912C39.2367 9.25045 46.559 6.84013 54.1396 6.01717C61.7203 5.19422 69.3892 5.97708 76.6472 8.3148C83.9052 10.6525 90.5895 14.4927 96.2648 19.5852C101.94 24.6778 106.479 30.9085 109.587 37.8718C112.306 43.9665 113.876 50.5027 114.225 57.1513C114.308 58.7231 115.576 60 117.15 60V60Z" fill="#6366F1"/>
</svg>
